<?xml version="1.0" encoding="UTF-8"?>
<svg width="533px" height="114px" viewBox="0 0 533 114" version="1.1" xmlns="http://www.w3.org/2000/svg" xmlns:xlink="http://www.w3.org/1999/xlink">
    <title>stiga_logo_checkout</title>
    <g id="Page-1" stroke="none" stroke-width="1" fill="none" fill-rule="evenodd">
        <g id="stiga_logo_checkout" fill="#FFFFFF" fill-rule="nonzero">
            <g id="Group">
                <rect id="Rectangle" x="223.7" y="2" width="33.4" height="109.7"></rect>
                <path d="M387.5,47.5 C387.9,50.3 388.1,53.8 388.1,56.7 C388.1,87.8 362.9,113 331.8,113 C300.7,113 275.5,87.8 275.5,56.7 C275.5,25.6 300.7,0.4 331.8,0.4 C344,0.4 355.4,4.3 364.7,10.9 L346.7,34.1 C342.4,31.3 337.3,29.6 331.8,29.6 C316.9,29.6 304.9,41.6 304.9,56.5 C304.9,71.4 316.9,83.4 331.8,83.4 C342.3,83.4 351.4,77.4 355.9,68.7 L334.5,68.7 L334.5,47.3 L387.5,47.5 Z" id="Path"></path>
                <path d="M0,79 C0,79 13.2,82.6 49.9,36.9 C82.4,-3.6 109.7,1.6 112.3,1.6 L112.3,35.6 C112.3,35.6 90.9,32.5 62.8,73.3 C37.9,109.4 12,112 0,112 L0,79 Z" id="Path"></path>
                <polygon id="Path" points="127.2 2 127.2 35.5 149.3 35.5 149.3 111.7 149.3 111.7 182.7 111.7 182.7 111.7 182.7 35.5 204.9 35.5 204.9 2"></polygon>
                <path d="M497.6,48.2 C477.8,20.3 467.4,2 449.2,2 L406.3,2 L406.3,111.7 L439.5,111.7 L439.5,89.3 L489.9,89.3 L490.9,90.5 C497.8,99.4 509.3,112 533,112 L533,79 C533,79 514.8,72.5 497.6,48.2 Z M439.4,60.6 L439.4,35.5 C448.6,35.5 452.2,40.8 453.6,42.6 C455,44.4 467.5,60.7 467.5,60.7 L439.4,60.7 L439.4,60.6 Z" id="Shape"></path>
            </g>
        </g>
    </g>
</svg>